<svg width="50" height="56" viewBox="0 0 50 56" fill="none" xmlns="http://www.w3.org/2000/svg">
<path d="M25 55.4371C23.6523 55.4371 22.3046 55.0659 21.1253 54.391L3.90836 44.4357C1.48248 43.0184 0 40.4536 0 37.6527V17.7422C0 14.975 1.48248 12.3765 3.87466 10.9929L21.1253 1.03771C23.5175 -0.345902 26.4825 -0.345902 28.9084 1.03771L46.1253 10.9929C48.5175 12.3765 50 14.975 50 17.7422V37.6864C50 40.4536 48.5175 43.0521 46.1253 44.4357L28.9084 54.391C27.6954 55.0659 26.3814 55.4371 25 55.4371ZM25 2.69129C24.124 2.69129 23.248 2.92751 22.473 3.36622L5.22237 13.3552C3.63881 14.2663 2.69542 15.9537 2.69542 17.7422V37.6864C2.69542 39.5087 3.67251 41.1623 5.22237 42.0735L22.4394 52.0625C24.0229 52.9736 25.9434 52.9736 27.527 52.0625L44.7439 42.1072C46.2938 41.1961 47.2709 39.5425 47.2709 37.7202V17.7422C47.2709 15.9199 46.2938 14.2326 44.7439 13.3552L27.5606 3.36622C26.7857 2.92751 25.9097 2.69129 25 2.69129ZM25 46.393C24.2588 46.393 23.5512 46.1906 22.9111 45.8193L10.3774 38.5976C9.09704 37.8552 8.28841 36.4716 8.28841 34.953V20.4757C8.28841 18.9909 9.06334 17.6073 10.3774 16.8311L22.9111 9.60932C24.2251 8.8669 25.8086 8.8669 27.089 9.60932L39.589 16.8311C40.8693 17.5735 41.6779 18.9571 41.6779 20.4757V34.953C41.6779 36.4378 40.8693 37.8552 39.589 38.5976L27.0553 45.8193C26.4488 46.1906 25.7412 46.393 25 46.393ZM25 11.0604C24.6294 11.0604 24.2588 11.1617 23.9218 11.3641L11.3881 18.5859C10.7143 18.9909 10.31 19.6995 10.31 20.4757V34.953C10.31 35.7291 10.7143 36.4378 11.3881 36.8428L23.9218 44.0645C24.5957 44.4695 25.4043 44.4695 26.0782 44.0645L38.5782 36.8428C39.252 36.4378 39.6563 35.7291 39.6563 34.953V20.4757C39.6563 19.6995 39.252 18.9909 38.5782 18.5859L26.0782 11.3641C25.7749 11.1617 25.4043 11.0604 25 11.0604ZM25 37.214C24.6294 37.214 24.2588 37.1127 23.9218 36.944L17.5876 33.2319C16.9137 32.8607 16.5094 32.1183 16.5094 31.3758V24.0191C16.5094 23.2429 16.9137 22.5342 17.5876 22.163L23.9218 18.4847C24.5957 18.1134 25.4043 18.1134 26.0782 18.4847L32.4124 22.163C33.0863 22.5342 33.4906 23.2429 33.4906 24.0191V31.3758C33.4906 32.152 33.0863 32.8607 32.4124 33.2319L26.0782 36.9103C25.7412 37.1127 25.3706 37.214 25 37.214ZM25 19.5645C24.8652 19.5645 24.7305 19.5983 24.5957 19.6658L18.2615 23.3442C18.0256 23.4791 17.8571 23.7491 17.8571 24.0191V31.3758C17.8571 31.6458 18.0256 31.9158 18.2615 32.0845L24.5957 35.7629C24.8315 35.8979 25.1348 35.8979 25.4043 35.7629L31.7385 32.0845C31.9744 31.9495 32.1429 31.6458 32.1429 31.3758V24.0191C32.1429 23.7491 31.9744 23.4791 31.7385 23.3442L25.4043 19.6658C25.2695 19.5983 25.1348 19.5645 25 19.5645Z" fill="url(#paint0_linear_412_9)"/>
<defs>
<linearGradient id="paint0_linear_412_9" x1="0" y1="27.7069" x2="50.0135" y2="27.7069" gradientUnits="userSpaceOnUse">
<stop stop-color="#E168FD"/>
<stop offset="1" stop-color="#7B00FC"/>
</linearGradient>
</defs>
</svg>
